# xmcd
#
# Track frame offsets:
#	150
#	12560
#	26251
#	40649
#	50855
#	64142
#	82682
#	97892
#	108741
#	119270
#	132836
#	144984
#	154440
#	169330
#	181921
#	192422
#	209234
#
# Disc length: 2961 seconds
#
# Revision: 1
# Processed by: cddbd v1.5.2PL0 Copyright (c) Steve Scherf et al.
# Submitted via: audiograbber 1.83.01
#
DISCID=f00b8f11
DTITLE=Don Jones Promotions - Thats country # 005 DP
DYEAR=2007
DGENRE=Country
TTITLE0=Leave My Mama Out Of This - Brian Sacco
TTITLE1=Memory In My Eye - Magie Leblanc
TTITLE2=Me And Jesse James  - John Patrik
TTITLE3=Fool Such As I  - Swaringim
TTITLE4=Cowboy Toughest Ride  - Trevor Cole
TTITLE5=We Thank You, George Jones  - Keith Mccoy
TTITLE6=Like I Love You Tonight  - Donna Nash
TTITLE7=Boxcar And Hobo Jungles - Carl Finney
TTITLE8=Eyes As Big As Dallas  - Donnie Drop Watson
TTITLE9=River Of Debt  - John Patrik
TTITLE10=Wabash Cannonball - Marty Maggio
TTITLE11=My Texas Lady  - Glenn Lenderman 
TTITLE12=The Bottle  - Dorian Harrison
TTITLE13=Another Heartache - Carl Finney
TTITLE14=Country Song Backward  - Keith Mccoy
TTITLE15=Dreamer Gone Blind  - Donnie Drop Watson
TTITLE16=You Bring Out The Happiness In Me  - Magie Leblanc
EXTD=
EXTT0=
EXTT1=
EXTT2=
EXTT3=
EXTT4=
EXTT5=
EXTT6=
EXTT7=
EXTT8=
EXTT9=
EXTT10=
EXTT11=
EXTT12=
EXTT13=
EXTT14=
EXTT15=
EXTT16=
PLAYORDER=
